<svg width="64" height="64" viewBox="0 0 64 64" fill="none" xmlns="http://www.w3.org/2000/svg">
<path d="M56.0902 3.41H7.91016C5.43016 3.41 3.41016 5.43 3.41016 7.91V56.09C3.41016 58.57 5.43016 60.59 7.91016 60.59H56.0902C58.5702 60.59 60.5902 58.57 60.5902 56.09V7.91C60.5902 5.43 58.5702 3.41 56.0902 3.41ZM57.5902 56.09C57.5902 56.92 56.9202 57.59 56.0902 57.59H7.91016C7.08016 57.59 6.41016 56.92 6.41016 56.09V7.91C6.41016 7.08 7.08016 6.41 7.91016 6.41H56.0902C56.9202 6.41 57.5902 7.08 57.5902 7.91V56.09Z" fill="#D9D9D9"/>
<path d="M12.5 11C12.5 11.39 12.34 11.78 12.06 12.06C11.99 12.13 11.91 12.19 11.83 12.25C11.75 12.3 11.66 12.35 11.57 12.38C11.48 12.42 11.39 12.45 11.29 12.47C11.2 12.49 11.1 12.5 11 12.5C10.9 12.5 10.8 12.49 10.71 12.47C10.61 12.45 10.52 12.42 10.43 12.38C10.34 12.35 10.25 12.3 10.17 12.25C10.08 12.19 10.01 12.13 9.94 12.06C9.66 11.78 9.5 11.4 9.5 11C9.5 10.9 9.51 10.8 9.53 10.71C9.55 10.61 9.58 10.52 9.61 10.43C9.65 10.34 9.7 10.25 9.75 10.17C9.81 10.08 9.87 10.01 9.94 9.94C10.01 9.87 10.08 9.81 10.17 9.75C10.25 9.7 10.34 9.65 10.43 9.61C10.52 9.58 10.61 9.55 10.71 9.53C10.9 9.49 11.1 9.49 11.29 9.53C11.39 9.55 11.48 9.58 11.57 9.61C11.66 9.65 11.75 9.7 11.83 9.75C11.91 9.81 11.99 9.87 12.06 9.94C12.13 10.01 12.19 10.08 12.25 10.17C12.3 10.25 12.35 10.34 12.39 10.43C12.42 10.52 12.45 10.61 12.47 10.71C12.49 10.8 12.5 10.9 12.5 11Z" fill="#D9D9D9"/>
<path d="M54.5 11C54.5 11.1 54.49 11.2 54.47 11.29C54.45 11.39 54.42 11.48 54.38 11.57C54.35 11.66 54.3 11.75 54.25 11.83C54.19 11.92 54.13 11.99 54.06 12.06C53.99 12.13 53.91 12.19 53.83 12.25C53.75 12.3 53.66 12.35 53.57 12.39C53.48 12.42 53.39 12.45 53.29 12.47C53.2 12.49 53.1 12.5 53 12.5C52.61 12.5 52.22 12.34 51.94 12.06C51.87 11.99 51.81 11.92 51.75 11.83C51.7 11.75 51.65 11.66 51.61 11.57C51.58 11.48 51.55 11.39 51.53 11.29C51.51 11.2 51.5 11.1 51.5 11C51.5 10.9 51.51 10.8 51.53 10.71C51.55 10.61 51.58 10.52 51.61 10.43C51.65 10.34 51.7 10.25 51.75 10.17C51.81 10.09 51.87 10.01 51.94 9.94C52.01 9.87 52.08 9.81 52.17 9.75C52.25 9.7 52.34 9.65 52.43 9.61C52.52 9.58 52.61 9.55 52.71 9.53C52.9 9.49 53.1 9.49 53.29 9.53C53.39 9.55 53.48 9.58 53.57 9.61C53.66 9.65 53.75 9.7 53.83 9.75C53.91 9.81 53.99 9.87 54.06 9.94C54.13 10.01 54.19 10.09 54.25 10.17C54.3 10.25 54.35 10.34 54.38 10.43C54.42 10.52 54.45 10.61 54.47 10.71C54.49 10.8 54.5 10.9 54.5 11Z" fill="#D9D9D9"/>
<path d="M54.5 53C54.5 53.39 54.34 53.78 54.06 54.06C53.99 54.13 53.91 54.19 53.83 54.25C53.75 54.3 53.66 54.35 53.57 54.38C53.48 54.42 53.39 54.45 53.29 54.47C53.2 54.49 53.1 54.5 53 54.5C52.9 54.5 52.8 54.49 52.71 54.47C52.61 54.45 52.52 54.42 52.43 54.38C52.34 54.35 52.25 54.3 52.17 54.25C52.08 54.19 52.01 54.13 51.94 54.06C51.66 53.78 51.5 53.39 51.5 53C51.5 52.9 51.51 52.8 51.53 52.71C51.55 52.61 51.58 52.52 51.61 52.43C51.65 52.34 51.7 52.25 51.75 52.17C51.81 52.09 51.87 52.01 51.94 51.94C52.01 51.87 52.08 51.81 52.17 51.75C52.25 51.7 52.34 51.65 52.43 51.62C52.52 51.58 52.61 51.55 52.71 51.53C52.9 51.49 53.1 51.49 53.29 51.53C53.39 51.55 53.48 51.58 53.57 51.62C53.66 51.65 53.75 51.7 53.83 51.75C53.91 51.81 53.99 51.87 54.06 51.94C54.34 52.22 54.5 52.61 54.5 53Z" fill="#D9D9D9"/>
<path d="M12.5 53C12.5 53.39 12.34 53.78 12.06 54.06C11.99 54.13 11.91 54.19 11.83 54.25C11.75 54.3 11.66 54.35 11.57 54.38C11.48 54.42 11.39 54.45 11.29 54.47C11.2 54.49 11.1 54.5 11 54.5C10.9 54.5 10.8 54.49 10.71 54.47C10.61 54.45 10.52 54.42 10.43 54.38C10.34 54.35 10.25 54.3 10.17 54.25C10.08 54.19 10.01 54.13 9.94 54.06C9.87 53.99 9.81 53.91 9.75 53.83C9.7 53.75 9.65 53.66 9.61 53.57C9.58 53.48 9.55 53.39 9.53 53.29C9.51 53.2 9.5 53.1 9.5 53C9.5 52.9 9.51 52.8 9.53 52.71C9.55 52.61 9.58 52.52 9.61 52.43C9.65 52.34 9.7 52.25 9.75 52.17C9.81 52.08 9.87 52.01 9.94 51.94C10.01 51.87 10.08 51.81 10.17 51.75C10.25 51.7 10.34 51.65 10.43 51.61C10.52 51.58 10.61 51.55 10.71 51.53C10.9 51.49 11.1 51.49 11.29 51.53C11.39 51.55 11.48 51.58 11.57 51.61C11.66 51.65 11.75 51.7 11.83 51.75C11.91 51.81 11.99 51.87 12.06 51.94C12.13 52.01 12.19 52.08 12.25 52.17C12.3 52.25 12.35 52.34 12.39 52.43C12.42 52.52 12.45 52.61 12.47 52.71C12.49 52.8 12.5 52.9 12.5 53Z" fill="#D9D9D9"/>
<path d="M45.6206 53C45.6206 53.83 44.9406 54.5 44.1206 54.5H19.8906C19.0606 54.5 18.3906 53.83 18.3906 53C18.3906 52.17 19.0606 51.5 19.8906 51.5H44.1206C44.9406 51.5 45.6206 52.17 45.6206 53Z" fill="#D9D9D9"/>
<path d="M12.5 19.89V44.11C12.5 44.94 11.83 45.61 11 45.61C10.17 45.61 9.5 44.94 9.5 44.11V19.89C9.5 19.06 10.17 18.39 11 18.39C11.83 18.39 12.5 19.06 12.5 19.89Z" fill="#D9D9D9"/>
<path d="M45.6206 11C45.6206 11.83 44.9406 12.5 44.1206 12.5H19.8906C19.0606 12.5 18.3906 11.83 18.3906 11C18.3906 10.17 19.0606 9.5 19.8906 9.5H44.1206C44.9406 9.5 45.6206 10.17 45.6206 11Z" fill="#D9D9D9"/>
<path d="M54.5 19.89V44.11C54.5 44.94 53.83 45.61 53 45.61C52.17 45.61 51.5 44.94 51.5 44.11V19.89C51.5 19.06 52.17 18.39 53 18.39C53.83 18.39 54.5 19.06 54.5 19.89Z" fill="#D9D9D9"/>
<path d="M36.4795 32C36.4795 33.2 36.0095 34.29 35.2495 35.09L35.2295 35.11C35.1895 35.15 35.1495 35.19 35.1095 35.23C35.1029 35.2367 35.0962 35.2433 35.0895 35.25C34.2895 36.01 33.1995 36.48 31.9995 36.48C30.7995 36.48 29.7095 36.01 28.9095 35.25C28.9029 35.2433 28.8962 35.2367 28.8895 35.23C28.8495 35.19 28.8095 35.15 28.7695 35.11L28.7495 35.09C27.9895 34.29 27.5195 33.2 27.5195 32C27.5195 30.79 27.9995 29.69 28.7695 28.89C28.8095 28.85 28.8495 28.81 28.8895 28.77C29.6895 28 30.7895 27.52 31.9995 27.52C33.1995 27.52 34.2895 27.99 35.0895 28.75C35.0962 28.7567 35.1029 28.7633 35.1095 28.77C35.1495 28.81 35.1895 28.85 35.2295 28.89C35.2362 28.8967 35.2429 28.9033 35.2495 28.91C36.0095 29.71 36.4795 30.8 36.4795 32Z" fill="#009BFF"/>
<path d="M30.4995 15.33V24.67C29.5495 24.87 28.6595 25.24 27.8795 25.76L21.2695 19.15C23.8895 16.95 27.0895 15.62 30.4995 15.33Z" fill="#009BFF"/>
<path d="M42.73 19.14L36.12 25.76C35.34 25.24 34.45 24.87 33.5 24.67V15.33C36.91 15.62 40.11 16.95 42.73 19.14Z" fill="#009BFF"/>
<path d="M25.7601 27.88C25.2401 28.66 24.8701 29.55 24.6701 30.5H15.3301C15.6201 27.09 16.9501 23.89 19.1401 21.27L25.7601 27.88Z" fill="#009BFF"/>
<path d="M25.7601 36.12L19.1401 42.73C16.9501 40.11 15.6201 36.91 15.3301 33.5H24.6701C24.8701 34.45 25.2401 35.34 25.7601 36.12Z" fill="#009BFF"/>
<path d="M30.4995 39.33V48.67C27.0895 48.38 23.8895 47.05 21.2695 44.85L27.8795 38.24C28.6595 38.76 29.5495 39.13 30.4995 39.33Z" fill="#009BFF"/>
<path d="M42.73 44.86C40.11 47.05 36.91 48.38 33.5 48.67V39.33C34.45 39.13 35.34 38.76 36.12 38.24L42.73 44.86Z" fill="#009BFF"/>
<path d="M48.6702 33.5C48.3802 36.91 47.0502 40.11 44.8502 42.73L38.2402 36.12C38.7602 35.34 39.1302 34.45 39.3302 33.5H48.6702Z" fill="#009BFF"/>
<path d="M48.6702 30.5H39.3302C39.1302 29.55 38.7602 28.66 38.2402 27.88L44.8502 21.27C47.0502 23.89 48.3802 27.09 48.6702 30.5Z" fill="#009BFF"/>
<path d="M35.2294 35.11C35.1894 35.15 35.1494 35.19 35.1094 35.23C35.1194 35.2 35.1394 35.18 35.1594 35.16C35.1794 35.14 35.1994 35.12 35.2294 35.11Z" fill="white"/>
<path d="M28.8895 28.77C28.8795 28.8 28.8595 28.82 28.8395 28.84C28.8195 28.86 28.7995 28.88 28.7695 28.89C28.8095 28.85 28.8495 28.81 28.8895 28.77Z" fill="white"/>
<path d="M28.8895 35.23C28.8495 35.19 28.8095 35.15 28.7695 35.11C28.7995 35.12 28.8195 35.14 28.8395 35.16C28.8595 35.18 28.8795 35.2 28.8895 35.23Z" fill="white"/>
<path d="M35.2294 28.89C35.1994 28.88 35.1794 28.86 35.1594 28.84C35.1394 28.82 35.1194 28.8 35.1094 28.77C35.1494 28.81 35.1894 28.85 35.2294 28.89Z" fill="white"/>
</svg>
