<svg width="64" height="64" viewBox="0 0 64 64" fill="none" xmlns="http://www.w3.org/2000/svg">
<path d="M48.1496 52.738H15.8516C13.3706 52.738 11.3516 50.719 11.3516 48.238V15.762C11.3516 13.281 13.3706 11.262 15.8516 11.262H48.1506C50.6316 11.262 52.6506 13.281 52.6506 15.762V48.238C52.6506 50.719 50.6316 52.738 48.1506 52.738H48.1496ZM15.8516 14.262C15.0246 14.262 14.3516 14.935 14.3516 15.762V48.238C14.3516 49.065 15.0246 49.738 15.8516 49.738H48.1506C48.9776 49.738 49.6506 49.065 49.6506 48.238V15.762C49.6506 14.935 48.9776 14.262 48.1506 14.262H15.8516Z" fill="#D9D9D9"/>
<path d="M44.1701 18.33H19.8301C19.0001 18.33 18.3301 19 18.3301 19.83V44.17C18.3301 45 19.0001 45.67 19.8301 45.67H44.1701C45.0001 45.67 45.6701 45 45.6701 44.17V19.83C45.6701 19 45.0001 18.33 44.1701 18.33ZM37.3201 39.83H26.6801C25.8501 39.83 25.1801 39.16 25.1801 38.33C25.1801 37.5 25.8501 36.83 26.6801 36.83H37.3201C38.1501 36.83 38.8201 37.5 38.8201 38.33C38.8201 39.16 38.1501 39.83 37.3201 39.83ZM37.3201 33.5H26.6801C25.8501 33.5 25.1801 32.83 25.1801 32C25.1801 31.17 25.8501 30.5 26.6801 30.5H37.3201C38.1501 30.5 38.8201 31.17 38.8201 32C38.8201 32.83 38.1501 33.5 37.3201 33.5ZM37.3201 27.17H26.6801C25.8501 27.17 25.1801 26.5 25.1801 25.67C25.1801 24.84 25.8501 24.17 26.6801 24.17H37.3201C38.1501 24.17 38.8201 24.84 38.8201 25.67C38.8201 26.5 38.1501 27.17 37.3201 27.17Z" fill="#009BFF"/>
<path d="M18.6133 14.262C17.7843 14.262 17.1133 13.591 17.1133 12.762V8.88101C17.1133 8.05201 17.7843 7.38101 18.6133 7.38101C19.4423 7.38101 20.1133 8.05201 20.1133 8.88101V12.762C20.1133 13.591 19.4423 14.262 18.6133 14.262Z" fill="#D9D9D9"/>
<path d="M25.3066 14.262C24.4776 14.262 23.8066 13.591 23.8066 12.762V5C23.8066 4.171 24.4776 3.5 25.3066 3.5C26.1356 3.5 26.8066 4.171 26.8066 5V12.762C26.8066 13.591 26.1356 14.262 25.3066 14.262Z" fill="#D9D9D9"/>
<path d="M32 14.262C31.171 14.262 30.5 13.591 30.5 12.762V8.88101C30.5 8.05201 31.171 7.38101 32 7.38101C32.829 7.38101 33.5 8.05201 33.5 8.88101V12.762C33.5 13.591 32.829 14.262 32 14.262Z" fill="#D9D9D9"/>
<path d="M38.6914 14.262C37.8624 14.262 37.1914 13.591 37.1914 12.762V5C37.1914 4.171 37.8624 3.5 38.6914 3.5C39.5204 3.5 40.1914 4.171 40.1914 5V12.762C40.1914 13.591 39.5204 14.262 38.6914 14.262Z" fill="#D9D9D9"/>
<path d="M45.3848 14.262C44.5558 14.262 43.8848 13.591 43.8848 12.762V8.88101C43.8848 8.05201 44.5558 7.38101 45.3848 7.38101C46.2138 7.38101 46.8848 8.05201 46.8848 8.88101V12.762C46.8848 13.591 46.2138 14.262 45.3848 14.262Z" fill="#D9D9D9"/>
<path d="M55.1193 20.114H51.2383C50.4093 20.114 49.7383 19.443 49.7383 18.614C49.7383 17.785 50.4093 17.114 51.2383 17.114H55.1193C55.9483 17.114 56.6193 17.785 56.6193 18.614C56.6193 19.443 55.9483 20.114 55.1193 20.114Z" fill="#D9D9D9"/>
<path d="M59.0003 26.807H51.2383C50.4093 26.807 49.7383 26.136 49.7383 25.307C49.7383 24.478 50.4093 23.807 51.2383 23.807H59.0003C59.8293 23.807 60.5003 24.478 60.5003 25.307C60.5003 26.136 59.8293 26.807 59.0003 26.807Z" fill="#D9D9D9"/>
<path d="M55.1193 33.5H51.2383C50.4093 33.5 49.7383 32.829 49.7383 32C49.7383 31.171 50.4093 30.5 51.2383 30.5H55.1193C55.9483 30.5 56.6193 31.171 56.6193 32C56.6193 32.829 55.9483 33.5 55.1193 33.5Z" fill="#D9D9D9"/>
<path d="M59.0003 40.193H51.2383C50.4093 40.193 49.7383 39.522 49.7383 38.693C49.7383 37.864 50.4093 37.193 51.2383 37.193H59.0003C59.8293 37.193 60.5003 37.864 60.5003 38.693C60.5003 39.522 59.8293 40.193 59.0003 40.193Z" fill="#D9D9D9"/>
<path d="M55.1193 46.886H51.2383C50.4093 46.886 49.7383 46.215 49.7383 45.386C49.7383 44.557 50.4093 43.886 51.2383 43.886H55.1193C55.9483 43.886 56.6193 44.557 56.6193 45.386C56.6193 46.215 55.9483 46.886 55.1193 46.886Z" fill="#D9D9D9"/>
<path d="M45.3848 56.619C44.5558 56.619 43.8848 55.948 43.8848 55.119V51.238C43.8848 50.409 44.5558 49.738 45.3848 49.738C46.2138 49.738 46.8848 50.409 46.8848 51.238V55.119C46.8848 55.948 46.2138 56.619 45.3848 56.619Z" fill="#D9D9D9"/>
<path d="M38.6914 60.5C37.8624 60.5 37.1914 59.829 37.1914 59V51.238C37.1914 50.409 37.8624 49.738 38.6914 49.738C39.5204 49.738 40.1914 50.409 40.1914 51.238V59C40.1914 59.829 39.5204 60.5 38.6914 60.5Z" fill="#D9D9D9"/>
<path d="M32 56.619C31.171 56.619 30.5 55.948 30.5 55.119V51.238C30.5 50.409 31.171 49.738 32 49.738C32.829 49.738 33.5 50.409 33.5 51.238V55.119C33.5 55.948 32.829 56.619 32 56.619Z" fill="#D9D9D9"/>
<path d="M25.3066 60.5C24.4776 60.5 23.8066 59.829 23.8066 59V51.238C23.8066 50.409 24.4776 49.738 25.3066 49.738C26.1356 49.738 26.8066 50.409 26.8066 51.238V59C26.8066 59.829 26.1356 60.5 25.3066 60.5Z" fill="#D9D9D9"/>
<path d="M18.6133 56.619C17.7843 56.619 17.1133 55.948 17.1133 55.119V51.238C17.1133 50.409 17.7843 49.738 18.6133 49.738C19.4423 49.738 20.1133 50.409 20.1133 51.238V55.119C20.1133 55.948 19.4423 56.619 18.6133 56.619Z" fill="#D9D9D9"/>
<path d="M12.7619 46.886H8.88086C8.05186 46.886 7.38086 46.215 7.38086 45.386C7.38086 44.557 8.05186 43.886 8.88086 43.886H12.7619C13.5909 43.886 14.2619 44.557 14.2619 45.386C14.2619 46.215 13.5909 46.886 12.7619 46.886Z" fill="#D9D9D9"/>
<path d="M12.762 40.193H5C4.171 40.193 3.5 39.522 3.5 38.693C3.5 37.864 4.171 37.193 5 37.193H12.762C13.591 37.193 14.262 37.864 14.262 38.693C14.262 39.522 13.591 40.193 12.762 40.193Z" fill="#D9D9D9"/>
<path d="M12.7619 33.5H8.88086C8.05186 33.5 7.38086 32.829 7.38086 32C7.38086 31.171 8.05186 30.5 8.88086 30.5H12.7619C13.5909 30.5 14.2619 31.171 14.2619 32C14.2619 32.829 13.5909 33.5 12.7619 33.5Z" fill="#D9D9D9"/>
<path d="M12.762 26.807H5C4.171 26.807 3.5 26.136 3.5 25.307C3.5 24.478 4.171 23.807 5 23.807H12.762C13.591 23.807 14.262 24.478 14.262 25.307C14.262 26.136 13.591 26.807 12.762 26.807Z" fill="#D9D9D9"/>
<path d="M12.7619 20.114H8.88086C8.05186 20.114 7.38086 19.443 7.38086 18.614C7.38086 17.785 8.05186 17.114 8.88086 17.114H12.7619C13.5909 17.114 14.2619 17.785 14.2619 18.614C14.2619 19.443 13.5909 20.114 12.7619 20.114Z" fill="#D9D9D9"/>
</svg>
