<svg width="64" height="64" viewBox="0 0 64 64" fill="none" xmlns="http://www.w3.org/2000/svg">
<path d="M17 57.5H11C10.171 57.5 9.5 56.829 9.5 56V15.5H5C4.171 15.5 3.5 14.829 3.5 14V8C3.5 7.171 4.171 6.5 5 6.5H14C16.481 6.5 18.5 8.519 18.5 11V56C18.5 56.829 17.829 57.5 17 57.5ZM12.5 54.5H15.5V11C15.5 10.173 14.827 9.5 14 9.5H6.5V12.5H11C11.829 12.5 12.5 13.171 12.5 14V54.5Z" fill="#D9D9D9"/>
<path d="M56 51.381H30.58C29.751 51.381 29.08 50.71 29.08 49.881V48.004H24.49V49.881C24.49 50.71 23.819 51.381 22.99 51.381H17C16.171 51.381 15.5 50.71 15.5 49.881C15.5 49.052 16.171 48.381 17 48.381H21.49V46.504C21.49 45.675 22.161 45.004 22.99 45.004H30.58C31.409 45.004 32.08 45.675 32.08 46.504V48.381H56C56.827 48.381 57.5 47.708 57.5 46.881V17.118C57.5 16.291 56.827 15.618 56 15.618H17C16.171 15.618 15.5 14.947 15.5 14.118C15.5 13.289 16.171 12.618 17 12.618H56C58.481 12.618 60.5 14.637 60.5 17.118V46.881C60.5 49.362 58.481 51.381 56 51.381Z" fill="#D9D9D9"/>
<path d="M43.9002 30.63H41.1602V33.37H43.9002V30.63Z" fill="#009BFF"/>
<path d="M53.07 33.5C53.89 33.5 54.57 32.83 54.57 32C54.57 31.17 53.89 30.5 53.07 30.5H52.02V28.08H53.07C53.89 28.08 54.57 27.41 54.57 26.58C54.57 25.75 53.89 25.08 53.07 25.08H52.02V24.01C52.02 23.18 51.35 22.51 50.52 22.51H49.45V21.47C49.45 20.64 48.78 19.97 47.95 19.97C47.12 19.97 46.45 20.64 46.45 21.47V22.51H44.03V21.47C44.03 20.64 43.36 19.97 42.53 19.97C41.7 19.97 41.03 20.64 41.03 21.47V22.51H38.61V21.47C38.61 20.64 37.94 19.97 37.11 19.97C36.29 19.97 35.61 20.64 35.61 21.47V22.51H34.54C33.71 22.51 33.04 23.18 33.04 24.01V25.08H32C31.17 25.08 30.5 25.75 30.5 26.58C30.5 27.41 31.17 28.08 32 28.08H33.04V30.5H32C31.17 30.5 30.5 31.17 30.5 32C30.5 32.83 31.17 33.5 32 33.5H33.04V35.92H32C31.17 35.92 30.5 36.59 30.5 37.42C30.5 38.25 31.17 38.92 32 38.92H33.04V39.99C33.04 40.82 33.71 41.49 34.54 41.49H35.61V42.53C35.61 43.36 36.29 44.03 37.11 44.03C37.94 44.03 38.61 43.36 38.61 42.53V41.49H41.03V42.53C41.03 43.36 41.7 44.03 42.53 44.03C43.36 44.03 44.03 43.36 44.03 42.53V41.49H46.45V42.53C46.45 43.36 47.12 44.03 47.95 44.03C48.78 44.03 49.45 43.36 49.45 42.53V41.49H50.52C51.35 41.49 52.02 40.82 52.02 39.99V38.92H53.07C53.89 38.92 54.57 38.25 54.57 37.42C54.57 36.59 53.89 35.92 53.07 35.92H52.02V33.5H53.07ZM46.9 34.87C46.9 35.7 46.23 36.37 45.4 36.37H39.66C38.83 36.37 38.16 35.7 38.16 34.87V29.13C38.16 28.3 38.83 27.63 39.66 27.63H45.4C46.23 27.63 46.9 28.3 46.9 29.13V34.87Z" fill="#009BFF"/>
<path d="M26.7838 28.081H22.2188C21.3898 28.081 20.7188 27.41 20.7188 26.581C20.7188 25.752 21.3898 25.081 22.2188 25.081H26.7838C27.6128 25.081 28.2838 25.752 28.2838 26.581C28.2838 27.41 27.6128 28.081 26.7838 28.081Z" fill="#D9D9D9"/>
<path d="M26.7838 33.5H22.2188C21.3898 33.5 20.7188 32.829 20.7188 32C20.7188 31.171 21.3898 30.5 22.2188 30.5H26.7838C27.6128 30.5 28.2838 31.171 28.2838 32C28.2838 32.829 27.6128 33.5 26.7838 33.5Z" fill="#D9D9D9"/>
<path d="M26.7838 38.919H22.2188C21.3898 38.919 20.7188 38.248 20.7188 37.419C20.7188 36.59 21.3898 35.919 22.2188 35.919H26.7838C27.6128 35.919 28.2838 36.59 28.2838 37.419C28.2838 38.248 27.6128 38.919 26.7838 38.919Z" fill="#D9D9D9"/>
</svg>
