<svg width="65" height="64" viewBox="0 0 65 64" fill="none" xmlns="http://www.w3.org/2000/svg">
<path d="M56.5 60.5H8.5C6.019 60.5 4 58.481 4 56V8C4 5.519 6.019 3.5 8.5 3.5H56.5C58.981 3.5 61 5.519 61 8V56C61 58.481 58.981 60.5 56.5 60.5ZM8.5 6.5C7.673 6.5 7 7.173 7 8V56C7 56.827 7.673 57.5 8.5 57.5H56.5C57.327 57.5 58 56.827 58 56V8C58 7.173 57.327 6.5 56.5 6.5H8.5Z" fill="#D9D9D9"/>
<path d="M32.8791 27.6V33.28H11.1191V27.6C11.1191 26.77 11.7891 26.1 12.6191 26.1H31.3791C32.2091 26.1 32.8791 26.77 32.8791 27.6Z" fill="#009BFF"/>
<path d="M32.8791 36.28H11.1191V42.89H32.8791V36.28Z" fill="#009BFF"/>
<path d="M11.1191 45.89H32.8791V51.57C32.8791 52.4 32.2091 53.07 31.3791 53.07H12.6191C11.7891 53.07 11.1191 52.4 11.1191 51.57V45.89Z" fill="#009BFF"/>
<path d="M40.1406 60.5C39.3116 60.5 38.6406 59.829 38.6406 59V43.391C38.6406 42.562 39.3116 41.891 40.1406 41.891C40.9696 41.891 41.6406 42.562 41.6406 43.391V59C41.6406 59.829 40.9696 60.5 40.1406 60.5Z" fill="#D9D9D9"/>
<path d="M45.8145 60.5C44.9855 60.5 44.3145 59.829 44.3145 59V43.391C44.3145 42.562 44.9855 41.891 45.8145 41.891C46.6435 41.891 47.3145 42.562 47.3145 43.391V59C47.3145 59.829 46.6435 60.5 45.8145 60.5Z" fill="#D9D9D9"/>
<path d="M51.4883 60.5C50.6593 60.5 49.9883 59.829 49.9883 59V43.391C49.9883 42.562 50.6593 41.891 51.4883 41.891C52.3173 41.891 52.9883 42.562 52.9883 43.391V59C52.9883 59.829 52.3173 60.5 51.4883 60.5Z" fill="#D9D9D9"/>
<path d="M51.4886 39.022H40.1406C39.3116 39.022 38.6406 38.351 38.6406 37.522V26.174C38.6406 25.345 39.3116 24.674 40.1406 24.674H51.4886C52.3176 24.674 52.9886 25.345 52.9886 26.174V37.522C52.9886 38.351 52.3176 39.022 51.4886 39.022ZM41.6406 36.022H49.9886V27.674H41.6406V36.022Z" fill="#D9D9D9"/>
<path d="M22 14.859H5.5C4.671 14.859 4 14.188 4 13.359C4 12.53 4.671 11.859 5.5 11.859H22C22.829 11.859 23.5 12.53 23.5 13.359C23.5 14.188 22.829 14.859 22 14.859Z" fill="#D9D9D9"/>
<path d="M22 20.761H5.5C4.671 20.761 4 20.09 4 19.261C4 18.432 4.671 17.761 5.5 17.761H22C22.829 17.761 23.5 18.432 23.5 19.261C23.5 20.09 22.829 20.761 22 20.761Z" fill="#D9D9D9"/>
<path d="M40.4355 14.883C39.6065 14.883 38.9355 14.212 38.9355 13.383C38.9355 12.554 39.6065 11.859 40.4355 11.859C41.2645 11.859 41.9355 12.506 41.9355 13.335V13.384C41.9355 14.213 41.2645 14.883 40.4355 14.883Z" fill="#D9D9D9"/>
<path d="M45.9629 14.883C45.1339 14.883 44.4629 14.212 44.4629 13.383C44.4629 12.554 45.1339 11.859 45.9629 11.859C46.7919 11.859 47.4629 12.506 47.4629 13.335V13.384C47.4629 14.213 46.7919 14.883 45.9629 14.883Z" fill="#D9D9D9"/>
<path d="M51.4902 14.883C50.6612 14.883 49.9902 14.212 49.9902 13.383C49.9902 12.554 50.6612 11.859 51.4902 11.859C52.3192 11.859 52.9902 12.506 52.9902 13.335V13.384C52.9902 14.213 52.3192 14.883 51.4902 14.883Z" fill="#D9D9D9"/>
<path d="M40.4355 20.785C39.6065 20.785 38.9355 20.114 38.9355 19.285C38.9355 18.456 39.6065 17.761 40.4355 17.761C41.2645 17.761 41.9355 18.408 41.9355 19.237V19.286C41.9355 20.115 41.2645 20.785 40.4355 20.785Z" fill="#D9D9D9"/>
<path d="M45.9629 20.785C45.1339 20.785 44.4629 20.114 44.4629 19.285C44.4629 18.456 45.1339 17.761 45.9629 17.761C46.7919 17.761 47.4629 18.408 47.4629 19.237V19.286C47.4629 20.115 46.7919 20.785 45.9629 20.785Z" fill="#D9D9D9"/>
<path d="M51.4902 20.785C50.6612 20.785 49.9902 20.114 49.9902 19.285C49.9902 18.456 50.6612 17.761 51.4902 17.761C52.3192 17.761 52.9902 18.408 52.9902 19.237V19.286C52.9902 20.115 52.3192 20.785 51.4902 20.785Z" fill="#D9D9D9"/>
</svg>
