<svg width="64" height="64" viewBox="0 0 64 64" fill="none" xmlns="http://www.w3.org/2000/svg">
<path d="M3.5 38.87L3.5 20.541C3.5 16.957 6.416 14.041 10 14.041L54 14.041C57.584 14.041 60.5 16.957 60.5 20.541L60.5 38.87C60.5 39.699 59.828 40.37 59 40.37L5 40.37C4.172 40.37 3.5 39.699 3.5 38.87ZM57.5 20.541C57.5 18.611 55.93 17.041 54 17.041L10 17.041C8.07 17.041 6.5 18.611 6.5 20.541L6.5 37.37L57.5 37.37L57.5 20.541Z" fill="#D9D9D9"/>
<path d="M5.06638 48.459L5.06638 38.866C5.06638 38.037 5.73838 37.366 6.56638 37.366C7.39437 37.366 8.06638 38.037 8.06638 38.866L8.06638 46.959L27.0964 46.959C27.7324 44.972 29.5974 43.529 31.7924 43.529C33.9874 43.529 35.8534 44.971 36.4884 46.959L55.1094 46.959L55.1094 38.866C55.1094 38.037 55.7814 37.366 56.6094 37.366C57.4374 37.366 58.1094 38.037 58.1094 38.866L58.1094 48.459C58.1094 49.288 57.4374 49.959 56.6094 49.959L35.2224 49.959C34.3944 49.959 33.7224 49.288 33.7224 48.459C33.7224 47.395 32.8574 46.529 31.7924 46.529C30.7274 46.529 29.8624 47.395 29.8624 48.459C29.8624 49.288 29.1904 49.959 28.3624 49.959L6.56538 49.959C5.73738 49.959 5.06638 49.288 5.06638 48.459Z" fill="#D9D9D9"/>
<path d="M50.252 42.853L50.252 38.866C50.252 38.037 50.924 37.366 51.752 37.366C52.58 37.366 53.252 38.037 53.252 38.866L53.252 42.853C53.252 43.682 52.58 44.353 51.752 44.353C50.924 44.353 50.252 43.682 50.252 42.853Z" fill="#D9D9D9"/>
<path d="M44.5488 42.853L44.5488 38.866C44.5488 38.037 45.2208 37.366 46.0488 37.366C46.8768 37.366 47.5488 38.037 47.5488 38.866L47.5488 42.853C47.5488 43.682 46.8768 44.353 46.0488 44.353C45.2208 44.353 44.5488 43.682 44.5488 42.853Z" fill="#D9D9D9"/>
<path d="M38.8477 42.853L38.8477 38.866C38.8477 38.037 39.5197 37.366 40.3477 37.366C41.1757 37.366 41.8477 38.037 41.8477 38.866L41.8477 42.853C41.8477 43.682 41.1757 44.353 40.3477 44.353C39.5197 44.353 38.8477 43.682 38.8477 42.853Z" fill="#D9D9D9"/>
<path d="M21.7402 42.853L21.7402 38.866C21.7402 38.037 22.4122 37.366 23.2402 37.366C24.0682 37.366 24.7402 38.037 24.7402 38.866L24.7402 42.853C24.7402 43.682 24.0682 44.353 23.2402 44.353C22.4122 44.353 21.7402 43.682 21.7402 42.853Z" fill="#D9D9D9"/>
<path d="M16.0371 42.853L16.0371 38.866C16.0371 38.037 16.7091 37.366 17.5371 37.366C18.3651 37.366 19.0371 38.037 19.0371 38.866L19.0371 42.853C19.0371 43.682 18.3651 44.353 17.5371 44.353C16.7091 44.353 16.0371 43.682 16.0371 42.853Z" fill="#D9D9D9"/>
<path d="M10.334 42.853L10.334 38.866C10.334 38.037 11.006 37.366 11.834 37.366C12.662 37.366 13.334 38.037 13.334 38.866L13.334 42.853C13.334 43.682 12.662 44.353 11.834 44.353C11.006 44.353 10.334 43.682 10.334 42.853Z" fill="#D9D9D9"/>
<path d="M19.4473 33.003L19.4473 21.408C19.4473 20.5796 18.7757 19.908 17.9473 19.908L12.5653 19.908C11.7368 19.908 11.0653 20.5796 11.0653 21.408L11.0653 33.003C11.0653 33.8314 11.7368 34.503 12.5653 34.503L17.9473 34.503C18.7757 34.503 19.4473 33.8314 19.4473 33.003Z" fill="#009BFF"/>
<path d="M30.6094 33.003L30.6094 21.408C30.6094 20.5796 29.9378 19.908 29.1094 19.908L23.7284 19.908C22.8999 19.908 22.2284 20.5796 22.2284 21.408L22.2284 33.003C22.2284 33.8314 22.8999 34.503 23.7284 34.503L29.1094 34.503C29.9378 34.503 30.6094 33.8314 30.6094 33.003Z" fill="#009BFF"/>
<path d="M41.7715 33.003L41.7715 21.408C41.7715 20.5796 41.0999 19.908 40.2715 19.908L34.8905 19.908C34.0621 19.908 33.3905 20.5796 33.3905 21.408L33.3905 33.003C33.3905 33.8314 34.0621 34.503 34.8905 34.503L40.2715 34.503C41.0999 34.503 41.7715 33.8314 41.7715 33.003Z" fill="#009BFF"/>
<path d="M52.9355 33.003L52.9355 21.408C52.9355 20.5796 52.264 19.908 51.4355 19.908L46.0535 19.908C45.2251 19.908 44.5535 20.5796 44.5535 21.408L44.5535 33.003C44.5535 33.8314 45.2251 34.503 46.0535 34.503L51.4355 34.503C52.264 34.503 52.9355 33.8314 52.9355 33.003Z" fill="#009BFF"/>
</svg>
