<svg width="65" height="64" viewBox="0 0 65 64" fill="none" xmlns="http://www.w3.org/2000/svg">
<path d="M56.5 54.5H8.5C6.019 54.5 4 52.481 4 50V14C4 11.519 6.019 9.5 8.5 9.5H56.5C58.981 9.5 61 11.519 61 14V22.15C61 22.979 60.329 23.65 59.5 23.65H54.82C54.544 23.65 54.32 23.874 54.32 24.15V39.85C54.32 40.126 54.544 40.35 54.82 40.35H59.5C60.329 40.35 61 41.021 61 41.85V50C61 52.481 58.981 54.5 56.5 54.5ZM8.5 12.5C7.673 12.5 7 13.173 7 14V50C7 50.827 7.673 51.5 8.5 51.5H56.5C57.327 51.5 58 50.827 58 50V43.35H54.82C52.89 43.35 51.32 41.78 51.32 39.85V24.15C51.32 22.22 52.89 20.65 54.82 20.65H58V14C58 13.173 57.327 12.5 56.5 12.5H8.5Z" fill="#D9D9D9"/>
<path d="M40.8801 46.5H17.2301C16.4101 46.5 15.7301 45.83 15.7301 45C15.7301 42.99 14.1001 41.35 12.0801 41.35C11.2601 41.35 10.5801 40.68 10.5801 39.85V25.26C14.5001 26.62 33.5101 33.74 40.8801 46.5Z" fill="#FF5252"/>
<path d="M46.2292 22.65C44.2192 22.65 42.5792 21.01 42.5792 19C42.5792 18.17 41.9092 17.5 41.0792 17.5H17.2292C16.4092 17.5 15.7292 18.17 15.7292 19C15.7292 20.97 14.1692 22.58 12.1992 22.64C17.3592 24.46 34.7692 31.36 42.7692 43.83C43.2592 42.39 44.6292 41.35 46.2292 41.35C47.0592 41.35 47.7292 40.68 47.7292 39.85V24.15C47.7292 23.32 47.0592 22.65 46.2292 22.65ZM37.4992 27.41H33.1792C32.3592 27.41 31.6792 26.74 31.6792 25.91C31.6792 25.08 32.3592 24.41 33.1792 24.41H37.4992C38.3292 24.41 38.9992 25.08 38.9992 25.91C38.9992 26.74 38.3292 27.41 37.4992 27.41Z" fill="#FF5252"/>
<path d="M59.5003 28.457H52.8203C51.9913 28.457 51.3203 27.786 51.3203 26.957C51.3203 26.128 51.9913 25.457 52.8203 25.457H59.5003C60.3293 25.457 61.0003 26.128 61.0003 26.957C61.0003 27.786 60.3293 28.457 59.5003 28.457Z" fill="#D9D9D9"/>
<path d="M59.5003 33.5H52.8203C51.9913 33.5 51.3203 32.829 51.3203 32C51.3203 31.171 51.9913 30.5 52.8203 30.5H59.5003C60.3293 30.5 61.0003 31.171 61.0003 32C61.0003 32.829 60.3293 33.5 59.5003 33.5Z" fill="#D9D9D9"/>
<path d="M59.5003 38.543H52.8203C51.9913 38.543 51.3203 37.872 51.3203 37.043C51.3203 36.214 51.9913 35.543 52.8203 35.543H59.5003C60.3293 35.543 61.0003 36.214 61.0003 37.043C61.0003 37.872 60.3293 38.543 59.5003 38.543Z" fill="#D9D9D9"/>
</svg>
